<?xml version="1.0" encoding="utf-8"?>
<!-- Generator: Adobe Illustrator 21.1.0, SVG Export Plug-In . SVG Version: 6.00 Build 0)  -->
<svg version="1.1" id="Layer_1" xmlns="http://www.w3.org/2000/svg" xmlns:xlink="http://www.w3.org/1999/xlink" x="0px" y="0px"
	 viewBox="0 0 564.9 472.5" style="enable-background:new 0 0 564.9 472.5;" xml:space="preserve">
<style type="text/css">
	.st0{fill:#FFA488;}
</style>
<g>
	<g>
		<g>
			<path class="st0" d="M61.5,348.8l5.8-11.5l12.8,6.4l-25,49.9c-4.4,8.8-10,14.3-16.7,16.4c-6.7,2.2-13.5,1.5-20.5-2
				C9,403.7,3.1,396.8,0,387.5l12.3-6.4c2.6,7.2,6.2,11.9,10.9,14.3c3.3,1.7,6.7,2,10.2,0.9c3.5-1.1,6.3-3.8,8.6-8.3L61.5,348.8
				L61.5,348.8z"/>
			<path class="st0" d="M112.8,442.1l-11.9-3.4l2.4-8.3c-6.9,4.7-14.6,5.8-23.2,3.3c-6.4-1.8-11.3-5.2-14.5-10
				c-3.2-4.9-3.9-10.3-2.2-16.4c1.7-6.1,5.3-10,10.7-11.8c5.4-1.7,11.9-1.5,19.6,0.7l16.9,4.8l0.7-2.3c2.3-8.2-1.1-13.7-10.2-16.3
				c-5.7-1.6-12.3-1.2-19.7,1.2l-3.5-9.8c9.2-3.8,18.6-4.4,28.2-1.7c7.3,2.1,12.7,5.6,16.3,10.6c3.6,5,4.2,11.5,2,19.4L112.8,442.1z
				 M106.3,415.3l1.5-5.2l-14.7-4.2c-9.4-2.7-14.9-1.1-16.6,4.8c-0.9,3-0.4,5.7,1.5,7.9c1.9,2.3,4.9,4,9.1,5.2
				c4.2,1.2,8.1,1.1,11.9-0.4C102.7,421.9,105.2,419.2,106.3,415.3z"/>
			<path class="st0" d="M143.3,472.4c-5.9-0.4-11-3-15.5-7.6l7-10.5c2.6,2.9,5.4,4.4,8.5,4.6c3,0.2,5.6-0.7,7.6-2.7
				c2-2,3.2-4.3,3.4-6.9c0.1-1.1-6.9-23.8-21.1-68l14.5,1.1l15.7,48.8l22.7-45.9l14.5,1.1l-36.8,74c-2.2,4.1-5.1,7.2-8.7,9.3
				C151.4,471.8,147.5,472.8,143.3,472.4z"/>
			<path class="st0" d="M226.5,412.6l5.4,34.5l-13.4,2.1l-9.9-63.7l13.4-2.1l1.8,11.6c1.5-4.2,4-7.8,7.5-10.6
				c3.4-2.8,7.4-4.6,11.7-5.3c7.2-1.1,13.3,0.2,18.4,3.9c5.1,3.7,8.3,9.7,9.6,18l6.1,39l-13.4,2.1l-5.4-35
				c-1.8-11.7-7.6-16.8-17.3-15.3c-4.6,0.7-8.4,2.9-11.4,6.5C226.6,401.9,225.6,406.7,226.5,412.6z"/>
			<path class="st0" d="M344.5,388.6l-47.3,17.8c2,4.3,5.3,7.1,10,8.3c4.7,1.3,9.5,1,14.2-0.8c7.6-2.8,12.4-7.4,14.6-13.6l10.2,5.2
				c-4,9.2-11.2,15.7-21.6,19.6c-8.5,3.2-16.7,3.1-24.8-0.3c-8.1-3.4-13.9-9.8-17.4-19.3c-3.6-9.5-3.4-18.2,0.6-26
				c3.9-7.9,10-13.3,18.2-16.4c8.2-3.1,16.1-3.2,23.7-0.4c7.6,2.8,13,8.5,16.3,17.2L344.5,388.6z M293.4,396.4l34.6-13
				c-1.9-5.1-5-8.4-9.2-9.9c-4.2-1.5-8.6-1.4-13.3,0.3c-4.6,1.7-8.3,4.7-10.9,9C292,387.1,291.6,391.6,293.4,396.4z"/>
			<path class="st0" d="M412.9,376.5l-11.1,7.8l-51.6-73.6l11.1-7.8L412.9,376.5z"/>
			<path class="st0" d="M379.9,304.4c-2.4-0.2-4.3-1.2-5.9-3c-1.5-1.8-2.2-3.9-2-6.3c0.2-2.4,1.2-4.3,3-5.9c1.8-1.5,3.9-2.2,6.3-2
				c2.4,0.2,4.3,1.2,5.9,3c1.5,1.8,2.2,3.9,2,6.3c-0.2,2.4-1.2,4.3-3,5.9C384.3,303.9,382.2,304.6,379.9,304.4z M439.5,355.1
				l-10.4,8.8l-41.7-49.2l10.3-8.8L439.5,355.1z"/>
			<path class="st0" d="M441.2,307.9l27.9,20.9l-8.1,10.9L409.4,301l8.1-10.9l9.4,7c-2-3.9-2.7-8.1-2.2-12.6
				c0.5-4.5,2.2-8.5,4.9-12.2c6.1-8.1,13.6-11.2,22.5-9c-2.9-10.1-1.5-19,4.2-26.7c4.4-5.8,9.7-9.2,15.9-10.1
				c6.2-0.9,12.7,1.1,19.5,6.2l31.6,23.7l-8.1,10.9l-28.3-21.2c-9.5-7.1-17.2-6.7-23.1,1.2c-2.8,3.7-4,7.8-3.7,12.3
				c0.3,4.5,2.7,8.5,7.1,12.1l28.7,21.5l-8.1,10.9l-28.3-21.2c-4.9-3.7-9.2-5.5-12.8-5.5c-3.6,0-6.8,1.9-9.6,5.7
				c-2.8,3.8-4,7.9-3.6,12.6C433.9,300.2,436.5,304.3,441.2,307.9z"/>
			<path class="st0" d="M460.1,202.4c-2.2,0.8-4.4,0.8-6.6-0.2c-2.1-1-3.6-2.6-4.5-4.8c-0.8-2.2-0.8-4.4,0.2-6.6
				c1-2.1,2.6-3.6,4.8-4.5c2.2-0.8,4.4-0.8,6.6,0.2c2.1,1,3.6,2.6,4.5,4.8c0.8,2.2,0.8,4.4-0.2,6.6
				C464,200.1,462.4,201.6,460.1,202.4z M535.8,222.8l-5.6,12.4l-58.7-26.6l5.6-12.4L535.8,222.8z"/>
			<path class="st0" d="M499.4,166.3l31.3,9.4c2.9,0.9,5.5,0.8,7.7-0.2c2.2-1,3.7-2.9,4.6-5.7c0.8-2.8,0.3-5.9-1.7-9.2l10.8-2.6
				c2.7,5.8,3.3,11.5,1.6,17c-1.7,5.5-5,9.7-10,12.4c-5,2.8-10.8,3.2-17.2,1.2l-31-9.3l-2.3,7.8l-10.4-3.1l2.3-7.8l-19.4-5.8l3.9-13
				l19.4,5.8l4.9-16.2l10.4,3.1L499.4,166.3z"/>
			<path class="st0" d="M540.9,82.5l-5.5,50.2c4.7,0.2,8.7-1.5,12-5.2c3.3-3.6,5.2-8,5.7-13c0.9-8-1-14.4-5.6-19.1l9.3-6.8
				c6.4,7.7,9,17.1,7.8,28.1c-1,9-4.8,16.3-11.5,22c-6.7,5.7-15,7.9-25.1,6.8c-10.1-1.1-17.7-5.2-23-12.2c-5.2-7.1-7.4-15-6.4-23.7
				c0.9-8.7,4.4-15.8,10.3-21.4c5.9-5.5,13.5-7.8,22.7-6.8L540.9,82.5z M524.9,131.6l4-36.7c-5.4-0.6-9.7,0.7-13,3.7
				c-3.3,3.1-5.2,7.1-5.7,12c-0.5,4.9,0.5,9.5,3.1,13.8C515.9,128.6,519.7,131,524.9,131.6z"/>
			<path class="st0" d="M557.8,57.4c-5.3,6.8-12.9,10.9-22.8,12.2c-9.9,1.3-18.3-0.7-25-6c-6.8-5.4-10.7-12.3-11.9-20.8
				c-1.2-8.5,1.5-15.9,8-22l-35.1,4.7L469.2,12l89.1-12l1.8,13.4l-9.6,1.3c7.7,4,12.2,10.8,13.5,20.3
				C565.1,43.1,563,50.6,557.8,57.4z M533.7,56.1c6.1-0.8,10.8-3.5,14.2-7.9c3.3-4.4,4.6-9.3,3.9-14.6c-0.7-5.3-3.3-9.5-7.6-12.7
				c-4.4-3.2-9.6-4.3-15.7-3.5c-6.1,0.8-10.9,3.4-14.5,7.6c-3.6,4.2-5,9-4.3,14.4c0.7,5.4,3.4,9.7,8,13
				C522.2,55.7,527.6,57,533.7,56.1z"/>
		</g>
		<path class="st0" d="M32.3,357.4c-2.4-0.2-4.3-1.2-5.9-3c-1.5-1.8-2.2-3.9-2-6.3c0.2-2.4,1.2-4.3,3-5.9c1.8-1.5,3.9-2.2,6.3-2
			c2.4,0.2,4.3,1.2,5.9,3c1.5,1.8,2.2,3.9,2,6.3c-0.2,2.4-1.2,4.3-3,5.9C36.7,356.9,34.7,357.6,32.3,357.4z"/>
	</g>
</g>
</svg>
