<svg id="Layer_1" data-name="Layer 1" xmlns="http://www.w3.org/2000/svg" viewBox="0 0 960 472.5"><defs><style>.cls-1{fill:#ffa488;}</style></defs><title>jl_home_logo</title><path class="cls-1" d="M361.12,296.84l3.1-6.18,6.88,3.45L357.62,321q-3.57,7.11-9,8.85a14.15,14.15,0,0,1-11-1.09A18.46,18.46,0,0,1,328,317.64l6.62-3.46q2.06,5.78,5.85,7.68a7.16,7.16,0,0,0,5.48.49q2.8-.86,4.61-4.47l10.55-21Z"/><path class="cls-1" d="M388.69,347l-6.4-1.82,1.27-4.45a14.27,14.27,0,0,1-12.51,1.79,13.23,13.23,0,0,1-7.78-5.4,10.26,10.26,0,0,1-1.18-8.84,8.62,8.62,0,0,1,5.74-6.33q4.33-1.41,10.54.36l9.09,2.59.36-1.25q1.89-6.65-5.51-8.75a18,18,0,0,0-10.62.64l-1.88-5.28a22.45,22.45,0,0,1,15.17-.9,15.55,15.55,0,0,1,8.78,5.72q2.88,4,1.06,10.44Zm-3.49-14.41.8-2.82-7.9-2.25q-7.59-2.16-8.94,2.61a4.4,4.4,0,0,0,.82,4.26,9.57,9.57,0,0,0,4.87,2.78,9.86,9.86,0,0,0,6.4-.21A6.27,6.27,0,0,0,385.2,332.59Z"/><path class="cls-1" d="M405.14,363.35a12.55,12.55,0,0,1-8.32-4.08l3.75-5.67a6.88,6.88,0,0,0,4.55,2.49,5,5,0,0,0,4.1-1.46,5.75,5.75,0,0,0,1.81-3.72q.07-.91-11.34-36.6l7.8.58,8.45,26.25,12.23-24.72,7.8.58-19.82,39.85a12.5,12.5,0,0,1-4.69,5A10.58,10.58,0,0,1,405.14,363.35Z"/><path class="cls-1" d="M449.91,331.13l2.88,18.55-7.21,1.12-5.33-34.27,7.22-1.12,1,6.25a13.62,13.62,0,0,1,20.27-6.45q4.13,3,5.17,9.69l3.27,21L469.93,347,467,328.21q-1.47-9.47-9.33-8.24a9.55,9.55,0,0,0-6.12,3.49Q449.17,326.36,449.91,331.13Z"/><path class="cls-1" d="M513.36,318.25l-25.45,9.57a7.9,7.9,0,0,0,5.38,4.49,12.1,12.1,0,0,0,7.65-.41q6.1-2.29,7.83-7.33l5.51,2.8q-3.21,7.41-11.63,10.57a17.37,17.37,0,0,1-13.33-.17q-6.5-2.74-9.38-10.4t.3-14a17.51,17.51,0,0,1,9.8-8.84,17.81,17.81,0,0,1,12.76-.24q6.14,2.26,8.78,9.27Zm-27.46,4.2,18.61-7a8.35,8.35,0,0,0-4.93-5.32,10,10,0,0,0-7.14.18,11.55,11.55,0,0,0-5.88,4.82A7.89,7.89,0,0,0,485.9,322.45Z"/><path class="cls-1" d="M550.21,311.7l-6,4.19-27.79-39.6,6-4.19Z"/><path class="cls-1" d="M532.41,272.92a4.57,4.57,0,1,1,3.37-1.06A4.45,4.45,0,0,1,532.41,272.92Zm32.12,27.3L559,304.95l-22.42-26.46,5.57-4.72Z"/><path class="cls-1" d="M565.44,274.79l15,11.25-4.38,5.85L548.33,271.1l4.37-5.85,5.06,3.79a11.59,11.59,0,0,1-1.19-6.79,13.42,13.42,0,0,1,2.62-6.55q4.92-6.58,12.11-4.86-2.35-8.19,2.27-14.35a12.89,12.89,0,0,1,8.56-5.45q5-.75,10.47,3.32l17,12.73-4.37,5.85L590,241.54q-7.67-5.74-12.44.63a9.65,9.65,0,0,0-2,6.62,9,9,0,0,0,3.82,6.48l15.45,11.56-4.38,5.85-15.24-11.41q-4-3-6.88-2.94t-5.17,3.05a9.56,9.56,0,0,0-1.94,6.78Q561.58,271.89,565.44,274.79Z"/><path class="cls-1" d="M575.62,218.06a4.56,4.56,0,1,1,2.59-2.4A4.44,4.44,0,0,1,575.62,218.06ZM616.33,229l-3,6.65-31.59-14.32,3-6.65Z"/><path class="cls-1" d="M596.72,198.58l16.86,5.07a5.72,5.72,0,0,0,4.15-.11,4.63,4.63,0,0,0,2.46-3.07,6.22,6.22,0,0,0-.89-5l5.79-1.39a12.43,12.43,0,0,1,.86,9.14,10.93,10.93,0,0,1-5.38,6.69,11.63,11.63,0,0,1-9.28.65l-16.67-5-1.26,4.18-5.62-1.69,1.26-4.18-10.43-3.13,2.1-7,10.43,3.13,2.63-8.74,5.62,1.69Z"/><path class="cls-1" d="M619.09,153.51l-2.94,27a7.9,7.9,0,0,0,6.43-2.77,12.14,12.14,0,0,0,3.09-7q.7-6.48-3-10.3l5-3.66q5.17,6.21,4.19,15.15a17.38,17.38,0,0,1-6.17,11.82q-5.38,4.56-13.52,3.68t-12.37-6.59a17.51,17.51,0,0,1-3.47-12.74,17.79,17.79,0,0,1,5.55-11.5q4.78-4.47,12.23-3.65Zm-8.64,26.41,2.15-19.77a8.36,8.36,0,0,0-7,2,10,10,0,0,0-3.06,6.46,11.53,11.53,0,0,0,1.65,7.42A7.89,7.89,0,0,0,610.45,179.92Z"/><path class="cls-1" d="M628.14,140q-4.25,5.51-12.27,6.59t-13.46-3.25A16.67,16.67,0,0,1,596,132.14a13.17,13.17,0,0,1,4.32-11.86l-18.86,2.54-1-7.23,47.94-6.47,1,7.24-5.17.7q6.23,3.24,7.26,10.93A15.6,15.6,0,0,1,628.14,140Zm-13-.69a10.86,10.86,0,0,0,7.62-4.25,10.37,10.37,0,0,0,2.1-7.85,9.68,9.68,0,0,0-4.11-6.82,11.32,11.32,0,0,0-8.44-1.89,11.93,11.93,0,0,0-7.81,4.08,9.54,9.54,0,0,0-2.31,7.75,9.94,9.94,0,0,0,4.3,7A11.65,11.65,0,0,0,615.19,139.33Z"/><path class="cls-1" d="M345.37,301.44a4.57,4.57,0,1,1,3.37-1.06A4.45,4.45,0,0,1,345.37,301.44Z"/></svg>