<svg id="Layer_1" data-name="Layer 1" xmlns="http://www.w3.org/2000/svg" viewBox="0 0 564.91 472.5"><defs><style>.cls-1{fill:#0f4dbc;}</style></defs><title>jl_home_logo_blue</title><path class="cls-1" d="M61.54,348.85l5.76-11.48,12.78,6.41L55,393.7q-6.63,13.22-16.66,16.45t-20.53-2A34.3,34.3,0,0,1,0,387.51l12.3-6.43q3.83,10.73,10.87,14.26a13.3,13.3,0,0,0,10.18.91q5.2-1.59,8.57-8.31l19.61-39.09Z"/><path class="cls-1" d="M112.77,442.06l-11.89-3.39,2.36-8.27q-10.31,7-23.25,3.33-9.67-2.75-14.46-10t-2.19-16.43Q66,398.12,74,395.5t19.59.67l16.9,4.81.66-2.33q3.51-12.35-10.23-16.26-8.62-2.45-19.74,1.18l-3.5-9.81a41.71,41.71,0,0,1,28.19-1.68q10.95,3.11,16.31,10.63t2,19.39Zm-6.48-26.78,1.49-5.25L93.1,405.85q-14.1-4-16.62,4.84A8.18,8.18,0,0,0,78,418.62Q80.82,422,87,423.78a18.32,18.32,0,0,0,11.89-.39A11.64,11.64,0,0,0,106.29,415.28Z"/><path class="cls-1" d="M143.33,472.44a23.32,23.32,0,0,1-15.47-7.58l7-10.54q3.93,4.3,8.46,4.63a9.32,9.32,0,0,0,7.61-2.72,10.68,10.68,0,0,0,3.37-6.92q.12-1.69-21.08-68l14.5,1.08,15.69,48.78,22.73-45.94,14.5,1.07-36.84,74a23.23,23.23,0,0,1-8.71,9.31A19.65,19.65,0,0,1,143.33,472.44Z"/><path class="cls-1" d="M226.53,412.57,231.89,447l-13.41,2.08-9.91-63.69L222,383.36,223.8,395A24.42,24.42,0,0,1,243,379.11q10.77-1.68,18.44,3.87t9.6,18l6.07,39-13.41,2.08-5.44-35q-2.74-17.6-17.34-15.32a17.75,17.75,0,0,0-11.37,6.49Q225.16,403.71,226.53,412.57Z"/><path class="cls-1" d="M344.45,388.64l-47.29,17.78a14.68,14.68,0,0,0,10,8.34,22.49,22.49,0,0,0,14.21-.76q11.34-4.26,14.55-13.62l10.24,5.2q-6,13.77-21.61,19.65a32.28,32.28,0,0,1-24.78-.32q-12.08-5.1-17.43-19.33t.56-26a32.54,32.54,0,0,1,18.22-16.43q12.3-4.63,23.71-.44t16.32,17.23Zm-51,7.81,34.58-13q-2.86-7.6-9.15-9.88a18.62,18.62,0,0,0-13.28.33,21.46,21.46,0,0,0-10.93,9A14.67,14.67,0,0,0,293.42,396.45Z"/><path class="cls-1" d="M412.93,376.46l-11.1,7.79-51.64-73.58,11.1-7.79Z"/><path class="cls-1" d="M379.85,304.4a8.49,8.49,0,1,1,6.27-2A8.27,8.27,0,0,1,379.85,304.4Zm59.68,50.74-10.35,8.77-41.67-49.17L397.86,306Z"/><path class="cls-1" d="M441.23,307.86l27.94,20.91L461,339.63,409.44,301l8.13-10.86,9.41,7a21.53,21.53,0,0,1-2.21-12.62,24.94,24.94,0,0,1,4.87-12.17q9.15-12.22,22.5-9-4.36-15.22,4.21-26.66,6.53-8.73,15.9-10.12t19.45,6.16l31.62,23.67-8.13,10.86-28.33-21.2q-14.25-10.67-23.11,1.16a17.92,17.92,0,0,0-3.68,12.3q.45,6.78,7.1,12.05l28.71,21.48-8.13,10.87-28.32-21.2q-7.37-5.51-12.78-5.47T437,282.93a17.76,17.76,0,0,0-3.6,12.59Q434.06,302.49,441.23,307.86Z"/><path class="cls-1" d="M460.14,202.44A8.48,8.48,0,1,1,465,198,8.25,8.25,0,0,1,460.14,202.44Zm75.65,20.33-5.61,12.36-58.7-26.61,5.6-12.36Z"/><path class="cls-1" d="M499.37,166.25l31.33,9.41a10.64,10.64,0,0,0,7.72-.21,8.61,8.61,0,0,0,4.56-5.71q1.26-4.17-1.65-9.22l10.77-2.59a23.1,23.1,0,0,1,1.6,17,20.32,20.32,0,0,1-10,12.43q-7.5,4.13-17.25,1.2l-31-9.31L493.13,187l-10.45-3.14,2.34-7.77-19.38-5.82,3.9-13,19.38,5.82,4.88-16.25L504.25,150Z"/><path class="cls-1" d="M540.93,82.49l-5.46,50.23a14.68,14.68,0,0,0,12-5.16,22.57,22.57,0,0,0,5.74-13q1.31-12-5.6-19.14l9.27-6.79q9.6,11.53,7.79,28.15a32.29,32.29,0,0,1-11.47,22q-10,8.48-25.12,6.84t-23-12.25a32.53,32.53,0,0,1-6.44-23.67Q500,96.57,508.92,88.28t22.73-6.79Zm-16.06,49.08,4-36.74q-8.07-.88-13,3.71a18.62,18.62,0,0,0-5.69,12,21.44,21.44,0,0,0,3.07,13.8A14.67,14.67,0,0,0,524.87,131.57Z"/><path class="cls-1" d="M557.76,57.41Q549.85,67.65,535,69.66t-25-6a31,31,0,0,1-11.85-20.83q-1.73-12.78,8-22l-35.06,4.73L469.24,12,558.33,0l1.82,13.45-9.61,1.29q11.58,6,13.5,20.31Q565.68,47.18,557.76,57.41Zm-24.07-1.28q9.19-1.23,14.16-7.89a19.28,19.28,0,0,0,3.9-14.59A18,18,0,0,0,544.11,21q-6.57-4.74-15.69-3.51a22.16,22.16,0,0,0-14.51,7.58,17.74,17.74,0,0,0-4.3,14.39,18.48,18.48,0,0,0,8,13A21.65,21.65,0,0,0,533.69,56.13Z"/><path class="cls-1" d="M32.27,357.39a8.57,8.57,0,1,1,1.41-17.08,8.57,8.57,0,1,1-1.41,17.08Z"/></svg>